<svg width="41" height="53" viewBox="0 0 41 53" fill="none" xmlns="http://www.w3.org/2000/svg">
<path d="M34.8643 45.8804C34.4554 45.7529 34.0197 45.9808 33.8917 46.39L33.2612 48.4084C32.6934 50.226 31.0325 51.4473 29.1281 51.4473H12.2079C10.3035 51.4473 8.64262 50.226 8.07483 48.4084L2.39452 30.2255C1.62426 27.7597 1.95271 25.0816 3.29593 22.8779C3.51911 22.5118 3.40317 22.0342 3.03704 21.8109C2.6708 21.5876 2.19318 21.7035 1.97 22.0698C0.39439 24.655 0.00889754 27.7963 0.912485 30.6885L6.5928 48.8713C7.36409 51.3409 9.62063 53 12.2079 53H29.1281C31.7154 53 33.9719 51.3409 34.7433 48.8713L35.3739 46.853C35.5016 46.4437 35.2734 46.0083 34.8643 45.8804Z" fill="#B3B5B7"/>
<path d="M34.5326 17.9933C32.7749 17.229 30.9912 16.6013 29.2176 16.12L30.868 12.3939H34.8192C35.8654 12.3939 36.7166 11.5427 36.7166 10.4965V6.48732C36.7166 5.44109 35.8654 4.58988 34.8192 4.58988H30.9244C30.8291 4.42964 30.7282 4.27209 30.6199 4.11837L28.8001 1.53534C28.1227 0.573994 27.0162 0 25.84 0H15.4957C14.3197 0 13.2131 0.573994 12.5357 1.53545L10.7159 4.11837C9.23377 6.22222 8.96048 8.99095 10.0027 11.3441L12.0795 16.0324C10.2439 16.5214 8.41051 17.1728 6.61731 17.9758C5.8927 18.2996 5.20546 18.7065 4.57474 19.185C4.23313 19.4442 4.16626 19.9311 4.42547 20.2728C4.57815 20.474 4.80992 20.5799 5.04449 20.5799C5.20805 20.5799 5.37284 20.5286 5.51311 20.4222C6.04963 20.0152 6.63428 19.6691 7.25134 19.3932C9.04661 18.5892 10.882 17.9448 12.7165 17.4709L13.2555 18.6875C13.2886 18.7621 13.3247 18.8348 13.3631 18.9058C11.5336 19.3619 9.69679 20.0001 7.88599 20.8102C4.48209 22.3333 2.75825 26.182 3.87632 29.7624L9.55643 47.9455C9.92184 49.1112 10.9875 49.8944 12.2082 49.8944H29.1278C30.3493 49.8944 31.4146 49.1109 31.7787 47.9448L37.4317 29.8504C38.5626 26.2309 36.7839 22.3581 33.2944 20.8419C31.5069 20.0647 29.7063 19.4437 27.9243 18.9884C27.9808 18.8912 28.034 18.7916 28.0802 18.6873L28.5809 17.5569C30.3576 18.026 32.1482 18.6498 33.9133 19.4172C38.1316 21.2515 40.2812 25.936 38.9132 30.3139L34.9725 42.9314C34.8447 43.3407 35.0728 43.7761 35.4821 43.9041C35.5591 43.9281 35.6371 43.9396 35.7138 43.9396C36.0444 43.9396 36.3509 43.7266 36.4546 43.3945L40.3954 30.7769C42.0004 25.6403 39.4799 20.1445 34.5326 17.9933ZM34.8192 6.14261C35.0093 6.14261 35.1639 6.29727 35.1639 6.48732V10.4965C35.1639 10.6865 35.0093 10.8412 34.8192 10.8412H31.5329C32.0753 9.31961 32.0944 7.66253 31.6175 6.14251H34.8192V6.14261ZM11.9853 5.01264L13.805 2.42972C14.192 1.88057 14.824 1.55273 15.4957 1.55273H25.84C26.5118 1.55273 27.1438 1.88057 27.5308 2.42972L29.3506 5.01264C30.5204 6.67313 30.736 8.85814 29.9135 10.7153L26.6607 18.0585C26.411 18.6219 25.8515 18.9861 25.2353 18.9861H16.1006C15.4843 18.9861 14.925 18.6219 14.6753 18.0586L11.4225 10.7154C10.5999 8.85814 10.8156 6.67303 11.9853 5.01264ZM20.6679 34.8278C22.3353 34.8278 23.6919 33.4713 23.6919 31.8038V26.3957C24.4311 27.1627 24.86 28.1938 24.86 29.301V38.3224C24.86 40.6341 22.9793 42.5148 20.6676 42.5148C18.3559 42.5148 16.4752 40.6341 16.4752 38.3224V29.301C16.4752 28.1942 16.9043 27.163 17.644 26.3955V31.8038C17.644 33.4713 19.0005 34.8278 20.6679 34.8278ZM22.1392 31.8038C22.1392 32.6151 21.4791 33.2751 20.6679 33.2751C19.8566 33.2751 19.1967 32.6151 19.1967 31.8038V20.5387H22.1392V31.8038ZM35.9498 29.3875L30.2968 47.4821C30.1363 47.9963 29.6665 48.3419 29.128 48.3419H12.2084C11.6699 48.3419 11.1996 47.996 11.0386 47.482L5.35866 29.2997C4.47505 26.4699 5.83431 23.4295 8.52034 22.2277C10.5604 21.315 12.6321 20.6321 14.6828 20.1945C15.1137 20.4154 15.5972 20.5389 16.1006 20.5389H17.644V24.4161C15.9541 25.4602 14.9225 27.2902 14.9225 29.3012V38.3226C14.9225 41.4905 17.4997 44.0677 20.6676 44.0677C23.8355 44.0677 26.4127 41.4905 26.4127 38.3226V29.3012C26.4127 27.2894 25.3814 25.4596 23.6919 24.4166V20.5389H25.2353C25.6926 20.5389 26.1341 20.4381 26.5342 20.2541C28.5609 20.699 30.6255 21.3748 32.6756 22.2662C35.4359 23.4655 36.8436 26.527 35.9498 29.3875Z" fill="#B3B5B7"/>
<path d="M29.2025 26.7244H30.2354C30.6642 26.7244 31.0118 26.3769 31.0118 25.948C31.0118 25.5191 30.6642 25.1716 30.2354 25.1716H29.2025C28.7737 25.1716 28.4261 25.5191 28.4261 25.948C28.4261 26.3769 28.7737 26.7244 29.2025 26.7244Z" fill="#B3B5B7"/>
<path d="M29.2025 33.3811H30.2354C30.6642 33.3811 31.0118 33.0336 31.0118 32.6047C31.0118 32.1759 30.6642 31.8284 30.2354 31.8284H29.2025C28.7737 31.8284 28.4261 32.1759 28.4261 32.6047C28.4261 33.0336 28.7737 33.3811 29.2025 33.3811Z" fill="#B3B5B7"/>
<path d="M30.2354 38.4856H29.2025C28.7737 38.4856 28.4261 38.8331 28.4261 39.262C28.4261 39.6908 28.7737 40.0383 29.2025 40.0383H30.2354C30.6642 40.0383 31.0118 39.6908 31.0118 39.262C31.0118 38.8331 30.6642 38.4856 30.2354 38.4856Z" fill="#B3B5B7"/>
</svg>
