<svg width="54" height="53" viewBox="0 0 54 53" fill="none" xmlns="http://www.w3.org/2000/svg">
<path d="M49.7358 16.3771C50.0132 16.3771 50.2853 16.2626 50.4814 16.0634C50.6777 15.8645 50.7905 15.5884 50.7905 15.307C50.7905 15.0255 50.6777 14.7494 50.4814 14.5504C50.2853 14.3513 50.0132 14.2368 49.7358 14.2368C49.4585 14.2368 49.1863 14.3512 48.9902 14.5504C48.794 14.7495 48.6812 15.0255 48.6812 15.307C48.6812 15.5884 48.7939 15.8645 48.9902 16.0634C49.1863 16.2626 49.4585 16.3771 49.7358 16.3771Z" fill="#B3B5B7"/>
<path d="M21.7339 45.4492H21.7182C21.1358 45.4492 20.6635 45.9284 20.6635 46.5194C20.6635 47.1103 21.1358 47.5895 21.7182 47.5895H21.7339C22.3163 47.5895 22.7886 47.1103 22.7886 46.5194C22.7886 45.9284 22.3163 45.4492 21.7339 45.4492Z" fill="#B3B5B7"/>
<path d="M54 41.3841V7.21352C54 5.50887 52.5806 4.12201 50.8359 4.12201H47.2232V3.50371C47.2232 1.57172 45.6146 0 43.6373 0C41.6599 0 40.0513 1.57172 40.0513 3.50371V4.12201H30.5725V3.50371C30.5725 1.57172 28.9639 0 26.9866 0C25.0093 0 23.4007 1.57172 23.4007 3.50371V4.12201H13.9219V3.50371C13.9219 1.57172 12.3133 0 10.3359 0C8.35861 0 6.75 1.57172 6.75 3.50371V4.12201H3.16406C1.4194 4.12201 0 5.50887 0 7.21352V49.6703C0 51.3749 1.4194 52.7618 3.16406 52.7618H42.3553C42.6464 52.7618 42.91 52.6465 43.1008 52.4601C43.1009 52.46 43.101 52.46 43.1011 52.4599L53.6911 42.1128C53.8819 41.9262 54 41.6686 54 41.3841ZM42.1607 3.50371C42.1607 2.70816 42.8231 2.06101 43.6373 2.06101C44.4515 2.06101 45.1138 2.70816 45.1138 3.50371V8.55318C45.1138 9.34873 44.4515 9.99588 43.6373 9.99588C42.8231 9.99588 42.1607 9.34873 42.1607 8.55318V3.50371ZM25.51 3.50371C25.51 2.70816 26.1724 2.06101 26.9866 2.06101C27.8008 2.06101 28.4632 2.70816 28.4632 3.50371V8.55318C28.4632 9.34873 27.8008 9.99588 26.9866 9.99588C26.1724 9.99588 25.51 9.34873 25.51 8.55318V3.50371ZM8.85938 3.50371C8.85938 2.70816 9.52172 2.06101 10.3359 2.06101C11.1502 2.06101 11.8125 2.70816 11.8125 3.50371V8.55318C11.8125 9.34873 11.1502 9.99588 10.3359 9.99588C9.52172 9.99588 8.85938 9.34873 8.85938 8.55318V3.50371ZM2.10938 49.6703V47.781H16.5059C17.0883 47.781 17.5605 47.3196 17.5605 46.7505C17.5605 46.1815 17.0883 45.72 16.5059 45.72H2.10938V17.7247H44.5078C45.0902 17.7247 45.5625 17.2632 45.5625 16.6942C45.5625 16.1251 45.0902 15.6637 44.5078 15.6637H2.10938V7.21352C2.10938 6.6453 2.58251 6.18302 3.16406 6.18302H6.75V8.55318C6.75 10.4852 8.35861 12.0569 10.3359 12.0569C12.3133 12.0569 13.9219 10.4852 13.9219 8.55318V6.18302H23.4007V8.55318C23.4007 10.4852 25.0093 12.0569 26.9866 12.0569C28.9639 12.0569 30.5725 10.4852 30.5725 8.55318V6.18302H40.0513V8.55318C40.0513 10.4852 41.6599 12.0569 43.6373 12.0569C45.6146 12.0569 47.2232 10.4852 47.2232 8.55318V6.18302H50.8359C51.4175 6.18302 51.8906 6.6453 51.8906 7.21352V40.3536H44.4647C42.72 40.3536 41.3006 41.7404 41.3006 43.4451V50.7008H3.16406C2.58251 50.7008 2.10938 50.2385 2.10938 49.6703ZM43.41 49.2433V43.445C43.41 42.8768 43.8831 42.4145 44.4647 42.4145H50.3991L43.41 49.2433Z" fill="#B3B5B7"/>
</svg>
