<svg width="55" height="53" viewBox="0 0 55 53" fill="none" xmlns="http://www.w3.org/2000/svg">
<path d="M2.71967 8.29535L16.1617 12.1911C16.3434 12.2442 16.5123 12.3329 16.6578 12.4521L21.399 16.3373L22.1634 16.9659L28.358 48.6355C28.6711 50.2453 29.7137 51.627 31.1901 52.3873C32.6665 53.1472 34.4149 53.2032 35.9383 52.5389L44.5756 48.7858C45.4171 49.7662 46.8053 50.101 48.0127 49.6147L52.5685 47.7766C54.1026 47.1581 54.8365 45.434 54.2085 43.9251L45.9116 24.0047L46.5272 23.3052C47.6756 21.9968 47.531 20.0214 46.2041 18.8882L36.711 10.7985C36.0718 10.2542 35.2391 9.9822 34.3964 10.0422C33.5533 10.1022 32.7691 10.4892 32.2161 11.1178L30.6808 12.8647L27.2302 10.0369H27.2248L20.8337 4.92368C20.5061 4.66105 20.1282 4.46569 19.7227 4.34897L5.16157 0.127789C3.4754 -0.359379 1.7064 0.589018 1.20903 2.24709L0.564564 4.39963C0.323918 5.19725 0.41622 6.05608 0.820457 6.78724C1.22469 7.51799 1.9079 8.06068 2.71967 8.29535ZM31.4645 14.6841L33.5784 12.2794C33.8187 12.0063 34.1594 11.8381 34.5262 11.8117C34.8925 11.7858 35.2547 11.9041 35.5324 12.1404L45.0256 20.2269C45.6025 20.7194 45.6651 21.5778 45.1661 22.1464L44.1887 23.2581C43.9662 23.5106 43.9069 23.8649 44.0354 24.1737L52.5429 44.5918C52.7943 45.1953 52.5005 45.8851 51.8869 46.1323L47.3295 47.9695C47.0344 48.0883 46.7035 48.0871 46.4093 47.9659C46.1155 47.8447 45.8827 47.6133 45.762 47.3231C45.6701 47.1018 45.4912 46.9263 45.2654 46.8367C45.04 46.7472 44.7874 46.7508 44.5649 46.8477L35.211 50.9124C34.1891 51.3566 33.0172 51.3181 32.0278 50.8083C31.038 50.2984 30.3388 49.3727 30.1278 48.2934L23.8726 16.3142C23.8331 16.1135 23.7243 15.9324 23.5648 15.8015L23.2822 15.5696L26.7307 11.9325L30.209 14.7817C30.5856 15.0898 31.1439 15.0448 31.4645 14.6808V14.6841ZM2.29112 4.9026L2.93394 2.74844C3.03737 2.40151 3.27719 2.1097 3.59984 1.93663C3.92249 1.76398 4.30159 1.72426 4.6539 1.8268L19.206 6.04027C19.3824 6.09134 19.5464 6.17605 19.6885 6.28994L25.3379 10.8054L21.8976 14.4356L17.8099 11.0842C17.4761 10.8098 17.0888 10.606 16.6714 10.4856L3.22733 6.59269C2.49427 6.37991 2.07561 5.62363 2.29112 4.9026Z" fill="#B3B5B7"/>
</svg>
